<svg xmlns="http://www.w3.org/2000/svg" viewBox="0 0 48 48" width="48" height="48">
  <rect width="48" height="48" rx="11" fill="#ffffff"/>
  <path fill="#4285F4" d="M12 36V21l-2.5-1.9C8.1 18 7 19.1 7 20.5v13C7 34.9 8.1 36 9.5 36H12z"/>
  <path fill="#34A853" d="M36 36h2.5c1.4 0 2.5-1.1 2.5-2.5v-13c0-1.4-1.1-2.5-2.5-3.4L36 18v18z"/>
  <path fill="#FBBC04" d="M12 36h24V21L24 30.5 12 21v15z"/>
  <path fill="#EA4335" d="M12 21l12 9.5L36 21v-7L24 23 12 13v8z"/>
  <path fill="#C5221F" d="M7 15.5l5 5.5v-8L9.5 11C8.1 11 7 12.1 7 13.5v2zM41 13.5c0-1.4-1.1-2.4-2.5-1.4L36 13v8l5-5.5v-2z"/>
  <path fill="#EA4335" d="M12 13l12 10 12-10v-2C36 9.6 34.9 8.5 33.5 8.5h-19C13.1 8.5 12 9.6 12 11v2z"/>
</svg>
