<svg xmlns="http://www.w3.org/2000/svg" viewBox="0 0 48 48" width="48" height="48">
  <rect width="48" height="48" rx="11" fill="#06C755"/>
  <path fill="#fff" d="M40.5 22.4c0-7.5-7.5-13.6-16.7-13.6S7.1 14.9 7.1 22.4c0 6.7 5.9 12.4 13.9 13.4.6.1 1.3.4 1.5.8.2.4.1 1 .1 1.5l-.2 1.4c-.1.4-.3 1.7 1.5 1 1.7-.8 9.7-5.7 13.2-9.8 2.4-2.7 3.6-5.4 3.6-8.3zM18.7 26.3h-3.3c-.4 0-.8-.3-.8-.8v-6.6c0-.4.3-.8.8-.8s.8.3.8.8v5.8h2.6c.4 0 .8.3.8.8s-.4.8-.9.8zm3-.8c0 .4-.3.8-.8.8s-.8-.3-.8-.8v-6.6c0-.4.3-.8.8-.8s.8.3.8.8v6.6zm7.9 0c0 .3-.2.6-.5.7-.1 0-.2.1-.2.1-.2 0-.5-.1-.6-.3l-3.4-4.6v4.1c0 .4-.3.8-.8.8s-.8-.3-.8-.8v-6.6c0-.3.2-.6.5-.7.1 0 .2-.1.2-.1.2 0 .5.1.6.3l3.4 4.6V19c0-.4.3-.8.8-.8s.8.3.8.8v6.5zm5.3-4.1c.4 0 .8.3.8.8 0 .4-.3.8-.8.8h-2.3v1.5h2.3c.4 0 .8.3.8.8s-.3.8-.8.8h-3.1c-.4 0-.8-.3-.8-.8v-6.5c0-.4.3-.8.8-.8h3.1c.4 0 .8.3.8.8s-.3.8-.8.8h-2.3V21h2.3z"/>
</svg>
