<svg xmlns="http://www.w3.org/2000/svg" viewBox="0 0 48 48" width="48" height="48">
  <defs>
    <linearGradient id="phoneG" x1="0" y1="0" x2="0" y2="1">
      <stop offset="0" stop-color="#5DD55B"/>
      <stop offset="1" stop-color="#1FAD45"/>
    </linearGradient>
  </defs>
  <rect width="48" height="48" rx="11" fill="url(#phoneG)"/>
  <path fill="#fff" d="M18.7 13.5c-1.6 0-2.9 1.2-3.1 2.8-1 9.2 6.2 17.1 15.4 17.1 1.7 0 3-1.4 3-3v-2.5c0-.8-.5-1.5-1.2-1.7l-3.6-1.1c-.6-.2-1.3 0-1.8.5l-1.1 1.3a13.5 13.5 0 0 1-6.3-6.3l1.3-1.1c.5-.4.6-1.1.4-1.8l-1.1-3.6c-.2-.7-.9-1.2-1.7-1.2h-2.2z"/>
</svg>
